<mxfile host="app.diagrams.net" agent="Mozilla/5.0 (Windows NT 10.0; Win64; x64) AppleWebKit/537.36 (KHTML, like Gecko) Chrome/131.0.0.0 Safari/537.36" version="24.8.4" pages="3">
  <diagram name="Página-1" id="KgXeDgs2lN3zEb0hzal4">
    <mxGraphModel dx="1290" dy="557" grid="1" gridSize="10" guides="1" tooltips="1" connect="1" arrows="1" fold="1" page="1" pageScale="1" pageWidth="827" pageHeight="1169" math="0" shadow="0">
      <root>
        <mxCell id="0" />
        <mxCell id="1" parent="0" />
        <mxCell id="OncOwHrtAq-CqorosQZo-3" value="" style="edgeStyle=orthogonalEdgeStyle;rounded=0;orthogonalLoop=1;jettySize=auto;html=1;" edge="1" parent="1" source="OncOwHrtAq-CqorosQZo-1" target="OncOwHrtAq-CqorosQZo-2">
          <mxGeometry relative="1" as="geometry" />
        </mxCell>
        <mxCell id="OncOwHrtAq-CqorosQZo-1" value="aplicacion.java" style="rounded=1;whiteSpace=wrap;html=1;" vertex="1" parent="1">
          <mxGeometry x="20" y="220" width="120" height="60" as="geometry" />
        </mxCell>
        <mxCell id="OncOwHrtAq-CqorosQZo-5" value="" style="edgeStyle=orthogonalEdgeStyle;rounded=0;orthogonalLoop=1;jettySize=auto;html=1;" edge="1" parent="1" source="OncOwHrtAq-CqorosQZo-2" target="OncOwHrtAq-CqorosQZo-4">
          <mxGeometry relative="1" as="geometry" />
        </mxCell>
        <mxCell id="OncOwHrtAq-CqorosQZo-2" value="" style="ellipse;whiteSpace=wrap;html=1;rounded=1;" vertex="1" parent="1">
          <mxGeometry x="240" y="210" width="80" height="80" as="geometry" />
        </mxCell>
        <mxCell id="OncOwHrtAq-CqorosQZo-7" value="" style="edgeStyle=orthogonalEdgeStyle;rounded=0;orthogonalLoop=1;jettySize=auto;html=1;" edge="1" parent="1" source="OncOwHrtAq-CqorosQZo-4" target="OncOwHrtAq-CqorosQZo-6">
          <mxGeometry relative="1" as="geometry" />
        </mxCell>
        <mxCell id="OncOwHrtAq-CqorosQZo-4" value="aplicacion.class&lt;div&gt;(bitecode)&lt;/div&gt;" style="whiteSpace=wrap;html=1;rounded=1;" vertex="1" parent="1">
          <mxGeometry x="380" y="220" width="120" height="60" as="geometry" />
        </mxCell>
        <mxCell id="OncOwHrtAq-CqorosQZo-9" value="" style="edgeStyle=orthogonalEdgeStyle;rounded=0;orthogonalLoop=1;jettySize=auto;html=1;" edge="1" parent="1" source="OncOwHrtAq-CqorosQZo-6" target="OncOwHrtAq-CqorosQZo-8">
          <mxGeometry relative="1" as="geometry" />
        </mxCell>
        <mxCell id="OncOwHrtAq-CqorosQZo-6" value="JVM" style="ellipse;whiteSpace=wrap;html=1;rounded=1;" vertex="1" parent="1">
          <mxGeometry x="400" y="330" width="80" height="80" as="geometry" />
        </mxCell>
        <mxCell id="OncOwHrtAq-CqorosQZo-8" value="Lenguaje de maquina" style="whiteSpace=wrap;html=1;rounded=1;" vertex="1" parent="1">
          <mxGeometry x="220" y="340" width="120" height="60" as="geometry" />
        </mxCell>
      </root>
    </mxGraphModel>
  </diagram>
  <diagram id="a2wBRtDmISMm39ixtq-2" name="Página-2">
    <mxGraphModel dx="1290" dy="557" grid="1" gridSize="10" guides="1" tooltips="1" connect="1" arrows="1" fold="1" page="1" pageScale="1" pageWidth="827" pageHeight="1169" math="0" shadow="0">
      <root>
        <mxCell id="0" />
        <mxCell id="1" parent="0" />
        <mxCell id="DLsdrlmbEXYltzPzle2a-1" value="Codigo Fuente" style="rounded=1;whiteSpace=wrap;html=1;" vertex="1" parent="1">
          <mxGeometry x="200" y="330" width="120" height="60" as="geometry" />
        </mxCell>
        <mxCell id="DLsdrlmbEXYltzPzle2a-2" value="" style="ellipse;shape=cloud;whiteSpace=wrap;html=1;" vertex="1" parent="1">
          <mxGeometry x="200" width="400" height="260" as="geometry" />
        </mxCell>
        <mxCell id="DLsdrlmbEXYltzPzle2a-6" style="edgeStyle=orthogonalEdgeStyle;rounded=0;orthogonalLoop=1;jettySize=auto;html=1;" edge="1" parent="1" source="DLsdrlmbEXYltzPzle2a-3" target="DLsdrlmbEXYltzPzle2a-5">
          <mxGeometry relative="1" as="geometry" />
        </mxCell>
        <mxCell id="DLsdrlmbEXYltzPzle2a-7" value="pull" style="edgeLabel;html=1;align=center;verticalAlign=middle;resizable=0;points=[];" vertex="1" connectable="0" parent="DLsdrlmbEXYltzPzle2a-6">
          <mxGeometry x="0.2271" y="1" relative="1" as="geometry">
            <mxPoint x="-1" y="34" as="offset" />
          </mxGeometry>
        </mxCell>
        <mxCell id="DLsdrlmbEXYltzPzle2a-3" value="" style="shape=cube;whiteSpace=wrap;html=1;boundedLbl=1;backgroundOutline=1;darkOpacity=0.05;darkOpacity2=0.1;" vertex="1" parent="1">
          <mxGeometry x="310" y="70" width="210" height="130" as="geometry" />
        </mxCell>
        <mxCell id="DLsdrlmbEXYltzPzle2a-4" value="push" style="edgeStyle=orthogonalEdgeStyle;rounded=0;orthogonalLoop=1;jettySize=auto;html=1;entryX=0;entryY=0;entryDx=0;entryDy=55;entryPerimeter=0;" edge="1" parent="1" source="DLsdrlmbEXYltzPzle2a-1" target="DLsdrlmbEXYltzPzle2a-3">
          <mxGeometry x="-0.3725" relative="1" as="geometry">
            <mxPoint as="offset" />
          </mxGeometry>
        </mxCell>
        <mxCell id="DLsdrlmbEXYltzPzle2a-5" value="codigo Fuente" style="rounded=1;whiteSpace=wrap;html=1;" vertex="1" parent="1">
          <mxGeometry x="560" y="330" width="120" height="60" as="geometry" />
        </mxCell>
      </root>
    </mxGraphModel>
  </diagram>
  <diagram id="cosoKLLeLlin-zzs-NaD" name="Página-3">
    <mxGraphModel dx="1290" dy="557" grid="1" gridSize="10" guides="1" tooltips="1" connect="1" arrows="1" fold="1" page="1" pageScale="1" pageWidth="827" pageHeight="1169" math="0" shadow="0">
      <root>
        <mxCell id="0" />
        <mxCell id="1" parent="0" />
        <mxCell id="wzzLQsDnya0fXD7sDv00-3" value="" style="edgeStyle=orthogonalEdgeStyle;rounded=0;orthogonalLoop=1;jettySize=auto;html=1;" edge="1" parent="1" source="wzzLQsDnya0fXD7sDv00-1" target="wzzLQsDnya0fXD7sDv00-2">
          <mxGeometry relative="1" as="geometry" />
        </mxCell>
        <mxCell id="wzzLQsDnya0fXD7sDv00-1" value="local" style="rounded=1;whiteSpace=wrap;html=1;" vertex="1" parent="1">
          <mxGeometry x="90" y="310" width="120" height="60" as="geometry" />
        </mxCell>
        <mxCell id="wzzLQsDnya0fXD7sDv00-5" value="" style="edgeStyle=orthogonalEdgeStyle;rounded=0;orthogonalLoop=1;jettySize=auto;html=1;" edge="1" parent="1" source="wzzLQsDnya0fXD7sDv00-2" target="wzzLQsDnya0fXD7sDv00-4">
          <mxGeometry relative="1" as="geometry" />
        </mxCell>
        <mxCell id="wzzLQsDnya0fXD7sDv00-2" value="stage" style="rounded=1;whiteSpace=wrap;html=1;" vertex="1" parent="1">
          <mxGeometry x="290" y="310" width="120" height="60" as="geometry" />
        </mxCell>
        <mxCell id="wzzLQsDnya0fXD7sDv00-4" value="repositorio" style="whiteSpace=wrap;html=1;rounded=1;" vertex="1" parent="1">
          <mxGeometry x="490" y="310" width="120" height="60" as="geometry" />
        </mxCell>
      </root>
    </mxGraphModel>
  </diagram>
</mxfile>
